<!-- Created with Inkscape (http://www.inkscape.org/) -->
<svg xmlns:rdf="http://www.w3.org/1999/02/22-rdf-syntax-ns#" xmlns="http://www.w3.org/2000/svg" xml:space="preserve" version="1.1" xmlns:cc="http://creativecommons.org/ns#" xmlns:dc="http://purl.org/dc/elements/1.1/" viewBox="0 0 1037.5 111.35"><metadata><rdf:RDF><cc:Work rdf:about=""><dc:format>image/svg+xml</dc:format><dc:type rdf:resource="http://purl.org/dc/dcmitype/StillImage"/><dc:title/></cc:Work></rdf:RDF></metadata><g transform="matrix(1.25,0,0,-1.25,1.9103874e-4,153.72991)"><g transform="scale(0.1,0.1)"><g transform="scale(10,10)"><g style="" fill-rule="nonzero" transform="matrix(0.898417,0,0,-1,1.49297,36.6734)" fill="#100f0d"><path d="m21.938-83.541-23.6,0l35.123,83.541h16.841l35.676-83.541h-23.6l-20.276,50.745z"/><path d="m121.99-83.541-21.716,0,0,83.541,21.716,0z"/><path d="M196.22-14.514,201.65,0h23.156l-31.466-83.541h-23.71l-32.13,83.541h23.046l5.7614-14.514zm-5.8722-16.619-18.06,0,8.9745-26.591,0.2216,0z"/><path d="m330.5-34.236c5.9483-1.1841,10.477-3.9402,13.586-8.2682,3.1092-4.3279,4.6742-9.4384,4.695-15.331-0.17781-8.8752-2.9523-15.389-8.3236-19.542-5.3714-4.1525-12.273-6.2068-20.705-6.1631h-32.463v83.541h21.716v-32.131h0.22159l20.49,32.13h27.03zm-21.495-32.685,2.1051,0c3.7301-0.13381,7.1279,0.46633,10.193,1.8004,3.0653,1.3342,4.6903,4.2057,4.875,8.6144-0.18471,4.4088-1.8097,7.2803-4.875,8.6144-3.0654,1.3342-6.4632,1.9344-10.193,1.8004h-2.1051z"/><path d="m420.03-83.541,0,43.986c0.25847,5.6968-0.45248,10.84-2.1328,15.428-1.6805,4.5888-5.8815,7.0171-12.603,7.2849-6.7217-0.26774-10.923-2.696-12.603-7.2849-1.6804-4.5888-2.3914-9.7316-2.1328-15.428v-43.986h-21.716v46.978c-0.15466,5.4244,0.26544,10.669,1.2603,15.733,0.99485,5.0643,3.4924,9.6439,7.4926,13.739,3.5986,3.3931,7.8688,5.803,12.811,7.2295,4.942,1.4265,9.9047,2.119,14.888,2.0774,4.9835,0.041546,9.9462-0.65093,14.888-2.0774,4.9419-1.4265,9.2122-3.8363,12.811-7.2295,4.0001-4.0948,6.4977-8.6744,7.4926-13.739,0.99478-5.0643,1.4149-10.309,1.2603-15.733v-46.978z"/><path d="m464.24,0,30.801,0c11.899-0.27237,21.866-4.298,29.901-12.077,8.035-7.7788,12.213-17.677,12.534-29.693-0.314-12.017-4.4781-21.915-12.492-29.693-8.0144-7.7788-17.995-11.804-29.943-12.077h-30.801zm21.716-65.148,5.0966,0c7.1002,0.03931,12.815,2.066,17.146,6.08,4.3302,4.0141,6.5554,9.7802,6.6755,17.298-0.19164,8.0997-2.5784,14.032-7.1602,17.797-4.582,3.7648-10.209,5.6253-16.883,5.5814h-4.875z"/><path d="m596.09-86.311c-8.1395,0.06301-15.694,1.9069-22.664,5.5316-6.97,3.6249-12.604,8.6531-16.903,15.085-4.2985,6.4317-6.5103,13.889-6.6355,22.373,0.24929,13.748,4.598,24.809,13.046,33.184,8.4482,8.3744,19.5,12.677,33.156,12.908,13.656-0.23083,24.708-4.5334,33.156-12.908,8.4482-8.3744,12.797-19.436,13.046-33.184-0.12525-8.4834-2.3371-15.941-6.6355-22.373-4.2986-6.4316-9.9328-11.46-16.903-15.085-6.97-3.6247-14.525-5.4686-22.664-5.5316zm0,21.051c6.6547,0.19858,12.208,2.433,16.661,6.7032,4.4526,4.2703,6.7654,9.3854,6.9386,15.345-0.17319,7.3403-2.4861,13.296-6.9386,17.866-4.4527,4.5704-10.006,6.9248-16.661,7.0633-6.6548-0.13848-12.208-2.4929-16.661-7.0633-4.4527-4.5703-6.7656-10.526-6.9386-17.866,0.1731-5.9599,2.486-11.075,6.9386-15.345,4.4526-4.2702,10.006-6.5046,16.661-6.7032z"/><path d="m680.74-83.541-21.716,0,0,83.541,47.753,0,0-18.392-26.037,0z"/><path d="m722.73,0,21.716,0,0-27.699,12.298,0c9.5215,0.05081,16.82-2.2113,21.896-6.7863,5.0758-4.5749,7.638-11.767,7.6865-21.578-0.14319-9.5307-2.9593-16.506-8.4482-20.927-5.4891-4.4202-12.792-6.6039-21.91-6.5508h-33.239zm21.716-66.035,3.6563,0c4.3349-0.2146,7.9912,0.24243,10.969,1.3711,2.9776,1.1288,4.5288,4.2173,4.6535,9.2654-0.15932,4.8843-1.7797,7.8574-4.8612,8.9191-3.0816,1.0618-6.6686,1.4866-10.761,1.2742h-3.6563z"/><path d="m824.33-51.299,0-32.242-21.716,0,0,83.541,21.716,0,0-34.236,31.355,0,0,34.236,21.716,0,0-83.541-21.716,0,0,32.242z"/><path d="m922.16-83.541-21.716,0,0,83.541,21.716,0z"/></g></g></g></g></svg>
