<svg xmlns:rdf="http://www.w3.org/1999/02/22-rdf-syntax-ns#" xmlns="http://www.w3.org/2000/svg" xmlns:cc="http://creativecommons.org/ns#" xmlns:dc="http://purl.org/dc/elements/1.1/" version="1.1" viewBox="0 0 54.858398 70.239632">

 <metadata>

  <rdf:RDF>

   <cc:Work rdf:about="">

    <dc:format>image/svg+xml</dc:format>

    <dc:type rdf:resource="http://purl.org/dc/dcmitype/StillImage"/>

    <dc:title/>

   </cc:Work>

  </rdf:RDF>

 </metadata>

 <g font-stretch="normal" font-variant="normal" transform="translate(-299.00516,-79.32682)" font-style="normal">

  <flowRoot style="writing-mode:lr-tb;letter-spacing:0px;text-anchor:start;word-spacing:0px;text-align:start;" font-weight="900" xml:space="preserve" font-size="64px" line-height="125%" font-family="Arial Black" fill="#000000"><flowRegion><rect y="106.8594" width="179.80716" x="250.51784" height="123.23861"/></flowRegion><flowPara>http://f.cl.ly/items/1U2c3b1215383h3a2T2r/icon-menu.svg</flowPara></flowRoot>

  <g style="writing-mode:lr-tb;letter-spacing:0px;text-anchor:start;word-spacing:0px;text-align:start;" font-weight="normal" font-size="64px" font-family="FontAwesome" line-height="125%" fill="#000">

   <path d="m353.86356,118.18485c-0.0172-0.64212-0.24188-1.17933-0.67413-1.61164-0.43235-0.4323-0.96957-0.657-1.61164-0.67412h-50.28687c-0.64213,0.0171-1.17934,0.24183-1.61164,0.67412-0.4323,0.43231-0.65701,0.96952-0.67412,1.61164v4.57154c0.0171,0.64213,0.24182,1.17934,0.67412,1.61164s0.96951,0.65701,1.61164,0.67412h50.28687c0.64207-0.0171,1.17929-0.24182,1.61164-0.67412,0.43225-0.4323,0.65696-0.96952,0.67413-1.61164zm0-18.28613c-0.0172-0.642102-0.24188-1.179317-0.67413-1.611645-0.43235-0.432275-0.96957-0.656982-1.61164-0.674122h-50.28687c-0.64213,0.01714-1.17934,0.241849-1.61164,0.674123-0.4323,0.432328-0.65701,0.969542-0.67412,1.611644v4.57153c0.0171,0.64215,0.24182,1.17936,0.67412,1.61165,0.4323,0.43232,0.96951,0.65702,1.61164,0.67412h50.28687c0.64207-0.0171,1.17929-0.2418,1.61164-0.67412,0.43225-0.43229,0.65696-0.9695,0.67413-1.61165zm0-18.286133c-0.0172-0.642084-0.24188-1.179298-0.67413-1.611645-0.43235-0.432256-0.96957-0.656963-1.61164-0.674122h-50.28687c-0.64213,0.01716-1.17934,0.241867-1.61164,0.674123-0.4323,0.432346-0.65701,0.96956-0.67412,1.611644v4.571533c0.0171,0.642166,0.24182,1.17938,0.67412,1.611644,0.4323,0.432338,0.96951,0.657045,1.61164,0.674123h50.28687c0.64207-0.01708,1.17929-0.241785,1.61164-0.674124,0.43225-0.432264,0.65696-0.969478,0.67413-1.611643z"/>

  </g>

  <g style="writing-mode:lr-tb;letter-spacing:0px;text-anchor:start;word-spacing:0px;text-align:start;" font-weight="normal" font-size="22px" font-family="Arial" line-height="125%" fill="#000">

   <path d="m301.30643,149.34673,0-12.88477,2.5664,0,3.04981,9.12305c0.28124,0.84961,0.48632,1.48535,0.61523,1.90722,0.14648-0.46874,0.37499-1.15722,0.68555-2.06543l3.08496-8.96484h2.29395v12.88477h-1.64356v-10.78418l-3.74414,10.78418h-1.53809l-3.72656-10.96875v10.96875z"/>

   <path d="m316.40604,149.34673,0-12.88477,9.3164,0,0,1.52051-7.61133,0,0,3.94629,7.12793,0,0,1.51172-7.12793,0,0,4.38574,7.91016,0,0,1.52051z"/>

   <path d="m328.37674,149.34673,0-12.88477,1.74902,0,6.76758,10.11621,0-10.11621,1.63477,0,0,12.88477-1.74903,0-6.76757-10.125,0,10.125z"/>

   <path d="m349.85721,136.46196,1.70508,0,0,7.44434c-0.00002,1.29492-0.1465,2.32324-0.43946,3.08496-0.29298,0.76172-0.82178,1.38135-1.58642,1.85888-0.76466,0.47754-1.76808,0.71631-3.01026,0.71631-1.20703,0-2.19434-0.20801-2.96191-0.62402-0.76758-0.41602-1.31543-1.01807-1.64356-1.80615-0.32812-0.78809-0.49218-1.86475-0.49218-3.22998v-7.44434h1.70508v7.43555c-0.00001,1.11914,0.104,1.94385,0.31201,2.47412,0.208,0.53027,0.56542,0.93896,1.07226,1.22607,0.50683,0.28711,1.12646,0.43067,1.85889,0.43067,1.2539,0,2.14745-0.28418,2.68066-0.85254,0.5332-0.56836,0.7998-1.66113,0.79981-3.27832z"/>

  </g>

 </g>

</svg>